<?xml version="1.0" standalone="no"?>
<!DOCTYPE svg PUBLIC "-//W3C//DTD SVG 20010904//EN"
 "http://www.w3.org/TR/2001/REC-SVG-20010904/DTD/svg10.dtd">
<svg version="1.0" xmlns="http://www.w3.org/2000/svg"
 width="320.000000pt" height="320.000000pt" viewBox="0 0 320.000000 320.000000"
 preserveAspectRatio="xMidYMid meet">
<metadata>
Created by potrace 1.14, written by Peter Selinger 2001-2017
</metadata>
<g transform="translate(0.000000,320.000000) scale(0.100000,-0.100000)"
fill="#000000" stroke="none">
<path d="M0 1600 l0 -1600 1600 0 1600 0 0 1600 0 1600 -1600 0 -1600 0 0
-1600z m1389 643 c99 -32 175 -123 200 -241 7 -34 11 -190 11 -435 0 -415 -7
-480 -55 -562 -71 -123 -219 -183 -375 -155 -174 32 -260 138 -281 345 -11
121 -11 649 1 753 16 141 69 231 164 277 96 47 225 54 335 18z m772 -2 c76
-29 124 -74 161 -149 l33 -67 0 -455 c0 -500 0 -504 -63 -595 -33 -47 -107
-100 -165 -117 -69 -20 -203 -14 -269 11 -101 39 -174 135 -198 261 -13 69
-13 801 0 870 6 29 20 73 32 97 25 49 93 117 136 135 98 40 239 44 333 9z"/>
<path d="M1219 1953 c-18 -21 -26 -710 -9 -773 12 -45 41 -55 60 -21 6 13 10
156 10 396 0 240 -4 383 -10 396 -13 23 -33 24 -51 2z"/>
<path d="M1981 1951 c-7 -13 -11 -149 -11 -398 0 -315 2 -382 14 -399 19 -25
48 -9 57 32 4 16 7 187 8 379 1 363 -3 396 -41 403 -9 2 -21 -6 -27 -17z"/>
</g>
</svg>
